<svg width="210" height="68" viewBox="0 0 210 68" fill="none" xmlns="http://www.w3.org/2000/svg">
<rect width="210" height="68" rx="15" fill="#97A18A"/>
<path d="M61.8875 44L58.4773 30.9453H61.7117L63.3758 38.5039C63.4461 38.8555 63.5281 39.3711 63.6219 40.0508C63.7234 40.7227 63.7859 41.207 63.8094 41.5039H63.8563C63.8641 41.2695 63.8953 40.9336 63.95 40.4961C64.0125 40.0586 64.075 39.6562 64.1375 39.2891C64.2 38.9219 64.8016 36.1406 65.9422 30.9453H69.1766L65.7547 44H61.8875ZM74.8531 44H71.7359V30.9453H74.8531V44ZM71.607 27.5352C71.607 27.0195 71.7555 26.6133 72.0523 26.3164C72.357 26.0117 72.7789 25.8594 73.318 25.8594C73.8258 25.8594 74.232 26.0117 74.5367 26.3164C74.8414 26.6133 74.9938 27.0195 74.9938 27.5352C74.9938 28.0664 74.8375 28.4805 74.525 28.7773C74.2125 29.0664 73.8102 29.2109 73.318 29.2109C72.8023 29.2109 72.3883 29.0664 72.0758 28.7773C71.7633 28.4805 71.607 28.0664 71.607 27.5352ZM83.5414 44.2344C81.9086 44.2344 80.6195 43.6562 79.6742 42.5C78.7367 41.3359 78.268 39.6914 78.268 37.5664C78.268 35.4102 78.6937 33.7266 79.5453 32.5156C80.3969 31.3047 81.5844 30.6992 83.1078 30.6992C84.5297 30.6992 85.6508 31.2188 86.4711 32.2578C87.2914 33.2891 87.7016 34.7383 87.7016 36.6055V38.2695H81.432C81.4555 39.4336 81.6937 40.3008 82.1469 40.8711C82.6 41.4336 83.225 41.7148 84.0219 41.7148C85.0375 41.7148 86.0766 41.3984 87.1391 40.7656V43.332C86.1391 43.9336 84.9398 44.2344 83.5414 44.2344ZM83.0844 33.1016C82.6391 33.1016 82.2719 33.3398 81.9828 33.8164C81.6937 34.2852 81.5258 35.0156 81.4789 36.0078H84.643C84.6273 35.0547 84.4828 34.332 84.2094 33.8398C83.9359 33.3477 83.5609 33.1016 83.0844 33.1016ZM100.058 44L98.757 36.418L98.3 33.2188H98.2531C98.1359 34.2578 98.0422 35.0117 97.9719 35.4805C97.9016 35.9414 97.4055 38.7812 96.4836 44H92.4758L89.8742 30.9453H93.0031L94.1984 38.1406C94.3391 38.9375 94.468 40.1055 94.5852 41.6445H94.6555C94.6711 41.2305 94.7258 40.6016 94.8195 39.7578C94.9133 38.9062 94.9797 38.3594 95.0188 38.1172L96.3078 30.9453H100.316L101.593 38.1406C101.741 38.9062 101.87 40.0742 101.98 41.6445H102.027C102.136 40.2461 102.273 39.0781 102.437 38.1406L103.679 30.9453H106.726L104.113 44H100.058ZM123.645 40.1797C123.645 41.4531 123.27 42.4492 122.52 43.168C121.778 43.8789 120.68 44.2344 119.227 44.2344C117.938 44.2344 116.872 43.9805 116.028 43.4727V40.7656C116.458 41.0625 116.958 41.3086 117.528 41.5039C118.106 41.6992 118.614 41.7969 119.052 41.7969C119.536 41.7969 119.903 41.6797 120.153 41.4453C120.411 41.2031 120.54 40.8867 120.54 40.4961C120.54 40.0977 120.407 39.75 120.141 39.4531C119.876 39.1562 119.387 38.793 118.677 38.3633C117.731 37.8008 117.052 37.2031 116.637 36.5703C116.231 35.9297 116.028 35.1758 116.028 34.3086C116.028 33.1992 116.407 32.3203 117.165 31.6719C117.93 31.0234 118.977 30.6992 120.305 30.6992C121.462 30.6992 122.552 31.0039 123.575 31.6133L122.555 33.8516C121.72 33.3984 120.985 33.1719 120.352 33.1719C119.954 33.1719 119.653 33.2773 119.45 33.4883C119.255 33.6992 119.157 33.957 119.157 34.2617C119.157 34.6133 119.278 34.9258 119.52 35.1992C119.77 35.4727 120.231 35.8125 120.903 36.2188C121.716 36.7109 122.286 37.1289 122.614 37.4727C122.942 37.8164 123.196 38.207 123.376 38.6445C123.555 39.082 123.645 39.5938 123.645 40.1797ZM129.955 44H126.837V30.9453H129.955V44ZM126.709 27.5352C126.709 27.0195 126.857 26.6133 127.154 26.3164C127.459 26.0117 127.88 25.8594 128.42 25.8594C128.927 25.8594 129.334 26.0117 129.638 26.3164C129.943 26.6133 130.095 27.0195 130.095 27.5352C130.095 28.0664 129.939 28.4805 129.627 28.7773C129.314 29.0664 128.912 29.2109 128.42 29.2109C127.904 29.2109 127.49 29.0664 127.177 28.7773C126.865 28.4805 126.709 28.0664 126.709 27.5352ZM138.362 41.5977C138.799 41.5977 139.272 41.4883 139.78 41.2695V43.707C139.272 44.0586 138.51 44.2344 137.495 44.2344C136.362 44.2344 135.522 43.8984 134.975 43.2266C134.428 42.5469 134.155 41.5312 134.155 40.1797V33.418H132.889V32.0234L134.518 30.8984L135.315 28.1328H137.307V30.9453H139.674V33.418H137.307V40.2852C137.307 41.1602 137.659 41.5977 138.362 41.5977ZM147.624 44.2344C145.991 44.2344 144.702 43.6562 143.757 42.5C142.82 41.3359 142.351 39.6914 142.351 37.5664C142.351 35.4102 142.777 33.7266 143.628 32.5156C144.48 31.3047 145.667 30.6992 147.191 30.6992C148.613 30.6992 149.734 31.2188 150.554 32.2578C151.374 33.2891 151.784 34.7383 151.784 36.6055V38.2695H145.515C145.538 39.4336 145.777 40.3008 146.23 40.8711C146.683 41.4336 147.308 41.7148 148.105 41.7148C149.12 41.7148 150.159 41.3984 151.222 40.7656V43.332C150.222 43.9336 149.023 44.2344 147.624 44.2344ZM147.167 33.1016C146.722 33.1016 146.355 33.3398 146.066 33.8164C145.777 34.2852 145.609 35.0156 145.562 36.0078H148.726C148.71 35.0547 148.566 34.332 148.292 33.8398C148.019 33.3477 147.644 33.1016 147.167 33.1016Z" fill="#F5F5F5"/>
</svg>
