<svg width="233" height="34" viewBox="0 0 233 34" fill="none" xmlns="http://www.w3.org/2000/svg">
<rect width="233" height="34" fill="#487434"/>
<path d="M14.3663 10.256H16.9763L20.4503 19.886L24.0323 10.256H26.4803L21.3323 23H19.3703L14.3663 10.256ZM29.5942 10.256H31.8622V23H29.5942V10.256ZM36.4579 10.256H44.8999V12.308H38.7259V15.44H44.5759V17.492H38.7259V20.948H45.2239V23H36.4579V10.256ZM47.8398 10.256H50.3238L52.7178 19.436H52.7538L55.6158 10.256H57.8478L60.6558 19.436H60.6918L63.1938 10.256H65.4978L61.7898 23H59.6298L56.6778 13.298H56.6418L53.6898 23H51.6018L47.8398 10.256ZM86.06 18.32C86.06 19.088 85.928 19.784 85.664 20.408C85.4 21.02 85.04 21.542 84.584 21.974C84.128 22.406 83.588 22.742 82.964 22.982C82.34 23.21 81.662 23.324 80.93 23.324C80.198 23.324 79.52 23.21 78.896 22.982C78.272 22.742 77.726 22.406 77.258 21.974C76.802 21.542 76.442 21.02 76.178 20.408C75.926 19.784 75.8 19.088 75.8 18.32V10.256H78.068V18.248C78.068 18.56 78.116 18.89 78.212 19.238C78.308 19.574 78.464 19.886 78.68 20.174C78.908 20.462 79.202 20.702 79.562 20.894C79.934 21.074 80.39 21.164 80.93 21.164C81.47 21.164 81.92 21.074 82.28 20.894C82.652 20.702 82.946 20.462 83.162 20.174C83.39 19.886 83.552 19.574 83.648 19.238C83.744 18.89 83.792 18.56 83.792 18.248V10.256H86.06V18.32ZM96.8903 12.992C96.6503 12.644 96.3263 12.392 95.9183 12.236C95.5223 12.068 95.1023 11.984 94.6583 11.984C94.3943 11.984 94.1363 12.014 93.8843 12.074C93.6443 12.134 93.4223 12.23 93.2183 12.362C93.0263 12.494 92.8703 12.668 92.7503 12.884C92.6303 13.088 92.5703 13.334 92.5703 13.622C92.5703 14.054 92.7203 14.384 93.0203 14.612C93.3203 14.84 93.6923 15.038 94.1363 15.206C94.5803 15.374 95.0663 15.536 95.5943 15.692C96.1223 15.848 96.6083 16.064 97.0523 16.34C97.4963 16.616 97.8683 16.982 98.1683 17.438C98.4683 17.894 98.6183 18.5 98.6183 19.256C98.6183 19.94 98.4923 20.54 98.2403 21.056C97.9883 21.56 97.6463 21.98 97.2143 22.316C96.7943 22.652 96.3023 22.904 95.7383 23.072C95.1743 23.24 94.5803 23.324 93.9563 23.324C93.1643 23.324 92.4023 23.192 91.6703 22.928C90.9383 22.664 90.3083 22.22 89.7803 21.596L91.4903 19.94C91.7663 20.36 92.1263 20.69 92.5703 20.93C93.0263 21.158 93.5063 21.272 94.0103 21.272C94.2743 21.272 94.5383 21.236 94.8023 21.164C95.0663 21.092 95.3063 20.984 95.5223 20.84C95.7383 20.696 95.9123 20.516 96.0443 20.3C96.1763 20.072 96.2423 19.814 96.2423 19.526C96.2423 19.058 96.0923 18.698 95.7923 18.446C95.4923 18.194 95.1203 17.984 94.6763 17.816C94.2323 17.636 93.7463 17.468 93.2183 17.312C92.6903 17.156 92.2043 16.946 91.7603 16.682C91.3163 16.406 90.9443 16.046 90.6443 15.602C90.3443 15.146 90.1943 14.54 90.1943 13.784C90.1943 13.124 90.3263 12.554 90.5903 12.074C90.8663 11.594 91.2203 11.198 91.6523 10.886C92.0963 10.562 92.6003 10.322 93.1643 10.166C93.7283 10.01 94.3043 9.932 94.8923 9.932C95.5643 9.932 96.2123 10.034 96.8363 10.238C97.4723 10.442 98.0423 10.778 98.5463 11.246L96.8903 12.992ZM102.78 10.256H111.222V12.308H105.048V15.44H110.898V17.492H105.048V20.948H111.546V23H102.78V10.256ZM115.584 10.256H120.012C120.624 10.256 121.212 10.316 121.776 10.436C122.352 10.544 122.862 10.736 123.306 11.012C123.75 11.288 124.104 11.66 124.368 12.128C124.632 12.596 124.764 13.19 124.764 13.91C124.764 14.834 124.506 15.608 123.99 16.232C123.486 16.856 122.76 17.234 121.812 17.366L125.196 23H122.46L119.508 17.6H117.852V23H115.584V10.256ZM119.616 15.656C119.94 15.656 120.264 15.644 120.588 15.62C120.912 15.584 121.206 15.512 121.47 15.404C121.746 15.284 121.968 15.11 122.136 14.882C122.304 14.642 122.388 14.312 122.388 13.892C122.388 13.52 122.31 13.22 122.154 12.992C121.998 12.764 121.794 12.596 121.542 12.488C121.29 12.368 121.008 12.29 120.696 12.254C120.396 12.218 120.102 12.2 119.814 12.2H117.852V15.656H119.616ZM142.094 12.992C141.854 12.644 141.53 12.392 141.122 12.236C140.726 12.068 140.306 11.984 139.862 11.984C139.598 11.984 139.34 12.014 139.088 12.074C138.848 12.134 138.626 12.23 138.422 12.362C138.23 12.494 138.074 12.668 137.954 12.884C137.834 13.088 137.774 13.334 137.774 13.622C137.774 14.054 137.924 14.384 138.224 14.612C138.524 14.84 138.896 15.038 139.34 15.206C139.784 15.374 140.27 15.536 140.798 15.692C141.326 15.848 141.812 16.064 142.256 16.34C142.7 16.616 143.072 16.982 143.372 17.438C143.672 17.894 143.822 18.5 143.822 19.256C143.822 19.94 143.696 20.54 143.444 21.056C143.192 21.56 142.85 21.98 142.418 22.316C141.998 22.652 141.506 22.904 140.942 23.072C140.378 23.24 139.784 23.324 139.16 23.324C138.368 23.324 137.606 23.192 136.874 22.928C136.142 22.664 135.512 22.22 134.984 21.596L136.694 19.94C136.97 20.36 137.33 20.69 137.774 20.93C138.23 21.158 138.71 21.272 139.214 21.272C139.478 21.272 139.742 21.236 140.006 21.164C140.27 21.092 140.51 20.984 140.726 20.84C140.942 20.696 141.116 20.516 141.248 20.3C141.38 20.072 141.446 19.814 141.446 19.526C141.446 19.058 141.296 18.698 140.996 18.446C140.696 18.194 140.324 17.984 139.88 17.816C139.436 17.636 138.95 17.468 138.422 17.312C137.894 17.156 137.408 16.946 136.964 16.682C136.52 16.406 136.148 16.046 135.848 15.602C135.548 15.146 135.398 14.54 135.398 13.784C135.398 13.124 135.53 12.554 135.794 12.074C136.07 11.594 136.424 11.198 136.856 10.886C137.3 10.562 137.804 10.322 138.368 10.166C138.932 10.01 139.508 9.932 140.096 9.932C140.768 9.932 141.416 10.034 142.04 10.238C142.676 10.442 143.246 10.778 143.75 11.246L142.094 12.992ZM150.594 12.308H146.688V10.256H156.768V12.308H152.862V23H150.594V12.308ZM159.436 16.682C159.436 15.662 159.604 14.738 159.94 13.91C160.276 13.07 160.738 12.356 161.326 11.768C161.926 11.18 162.634 10.73 163.45 10.418C164.278 10.094 165.184 9.932 166.168 9.932C167.164 9.92 168.076 10.07 168.904 10.382C169.732 10.682 170.446 11.126 171.046 11.714C171.646 12.302 172.114 13.01 172.45 13.838C172.786 14.666 172.954 15.59 172.954 16.61C172.954 17.606 172.786 18.512 172.45 19.328C172.114 20.144 171.646 20.846 171.046 21.434C170.446 22.022 169.732 22.484 168.904 22.82C168.076 23.144 167.164 23.312 166.168 23.324C165.184 23.324 164.278 23.168 163.45 22.856C162.634 22.532 161.926 22.082 161.326 21.506C160.738 20.918 160.276 20.216 159.94 19.4C159.604 18.584 159.436 17.678 159.436 16.682ZM161.812 16.538C161.812 17.222 161.914 17.852 162.118 18.428C162.334 19.004 162.634 19.502 163.018 19.922C163.402 20.342 163.858 20.672 164.386 20.912C164.926 21.152 165.526 21.272 166.186 21.272C166.846 21.272 167.446 21.152 167.986 20.912C168.526 20.672 168.988 20.342 169.372 19.922C169.756 19.502 170.05 19.004 170.254 18.428C170.47 17.852 170.578 17.222 170.578 16.538C170.578 15.902 170.47 15.308 170.254 14.756C170.05 14.204 169.756 13.724 169.372 13.316C168.988 12.896 168.526 12.572 167.986 12.344C167.446 12.104 166.846 11.984 166.186 11.984C165.526 11.984 164.926 12.104 164.386 12.344C163.858 12.572 163.402 12.896 163.018 13.316C162.634 13.724 162.334 14.204 162.118 14.756C161.914 15.308 161.812 15.902 161.812 16.538ZM176.914 10.256H181.342C181.954 10.256 182.542 10.316 183.106 10.436C183.682 10.544 184.192 10.736 184.636 11.012C185.08 11.288 185.434 11.66 185.698 12.128C185.962 12.596 186.094 13.19 186.094 13.91C186.094 14.834 185.836 15.608 185.32 16.232C184.816 16.856 184.09 17.234 183.142 17.366L186.526 23H183.79L180.838 17.6H179.182V23H176.914V10.256ZM180.946 15.656C181.27 15.656 181.594 15.644 181.918 15.62C182.242 15.584 182.536 15.512 182.8 15.404C183.076 15.284 183.298 15.11 183.466 14.882C183.634 14.642 183.718 14.312 183.718 13.892C183.718 13.52 183.64 13.22 183.484 12.992C183.328 12.764 183.124 12.596 182.872 12.488C182.62 12.368 182.338 12.29 182.026 12.254C181.726 12.218 181.432 12.2 181.144 12.2H179.182V15.656H180.946ZM189.998 10.256H192.266V23H189.998V10.256ZM196.862 10.256H205.304V12.308H199.13V15.44H204.98V17.492H199.13V20.948H205.628V23H196.862V10.256ZM215.912 12.992C215.672 12.644 215.348 12.392 214.94 12.236C214.544 12.068 214.124 11.984 213.68 11.984C213.416 11.984 213.158 12.014 212.906 12.074C212.666 12.134 212.444 12.23 212.24 12.362C212.048 12.494 211.892 12.668 211.772 12.884C211.652 13.088 211.592 13.334 211.592 13.622C211.592 14.054 211.742 14.384 212.042 14.612C212.342 14.84 212.714 15.038 213.158 15.206C213.602 15.374 214.088 15.536 214.616 15.692C215.144 15.848 215.63 16.064 216.074 16.34C216.518 16.616 216.89 16.982 217.19 17.438C217.49 17.894 217.64 18.5 217.64 19.256C217.64 19.94 217.514 20.54 217.262 21.056C217.01 21.56 216.668 21.98 216.236 22.316C215.816 22.652 215.324 22.904 214.76 23.072C214.196 23.24 213.602 23.324 212.978 23.324C212.186 23.324 211.424 23.192 210.692 22.928C209.96 22.664 209.33 22.22 208.802 21.596L210.512 19.94C210.788 20.36 211.148 20.69 211.592 20.93C212.048 21.158 212.528 21.272 213.032 21.272C213.296 21.272 213.56 21.236 213.824 21.164C214.088 21.092 214.328 20.984 214.544 20.84C214.76 20.696 214.934 20.516 215.066 20.3C215.198 20.072 215.264 19.814 215.264 19.526C215.264 19.058 215.114 18.698 214.814 18.446C214.514 18.194 214.142 17.984 213.698 17.816C213.254 17.636 212.768 17.468 212.24 17.312C211.712 17.156 211.226 16.946 210.782 16.682C210.338 16.406 209.966 16.046 209.666 15.602C209.366 15.146 209.216 14.54 209.216 13.784C209.216 13.124 209.348 12.554 209.612 12.074C209.888 11.594 210.242 11.198 210.674 10.886C211.118 10.562 211.622 10.322 212.186 10.166C212.75 10.01 213.326 9.932 213.914 9.932C214.586 9.932 215.234 10.034 215.858 10.238C216.494 10.442 217.064 10.778 217.568 11.246L215.912 12.992Z" fill="white"/>
</svg>
