<svg width="233" height="34" viewBox="0 0 233 34" fill="none" xmlns="http://www.w3.org/2000/svg">
<rect width="233" height="34" fill="#487434"/>
<path d="M26.0663 10.256H28.6763L32.1503 19.886L35.7323 10.256H38.1803L33.0323 23H31.0703L26.0663 10.256ZM41.2942 10.256H43.5622V23H41.2942V10.256ZM48.1579 10.256H56.5999V12.308H50.4259V15.44H56.2759V17.492H50.4259V20.948H56.9239V23H48.1579V10.256ZM59.5398 10.256H62.0238L64.4178 19.436H64.4538L67.3158 10.256H69.5478L72.3558 19.436H72.3918L74.8938 10.256H77.1978L73.4898 23H71.3298L68.3778 13.298H68.3418L65.3898 23H63.3018L59.5398 10.256ZM87.554 10.256H91.838C92.45 10.256 93.038 10.316 93.602 10.436C94.178 10.556 94.682 10.76 95.114 11.048C95.546 11.324 95.888 11.702 96.14 12.182C96.404 12.65 96.536 13.238 96.536 13.946C96.536 14.75 96.398 15.398 96.122 15.89C95.846 16.382 95.474 16.766 95.006 17.042C94.538 17.306 93.992 17.486 93.368 17.582C92.756 17.678 92.114 17.726 91.442 17.726H89.822V23H87.554V10.256ZM91.19 15.782C91.514 15.782 91.85 15.77 92.198 15.746C92.546 15.722 92.864 15.65 93.152 15.53C93.452 15.41 93.692 15.23 93.872 14.99C94.064 14.75 94.16 14.414 94.16 13.982C94.16 13.586 94.076 13.274 93.908 13.046C93.74 12.806 93.524 12.626 93.26 12.506C92.996 12.374 92.702 12.29 92.378 12.254C92.054 12.218 91.742 12.2 91.442 12.2H89.822V15.782H91.19ZM100.358 10.256H104.786C105.398 10.256 105.986 10.316 106.55 10.436C107.126 10.544 107.636 10.736 108.08 11.012C108.524 11.288 108.878 11.66 109.142 12.128C109.406 12.596 109.538 13.19 109.538 13.91C109.538 14.834 109.28 15.608 108.764 16.232C108.26 16.856 107.534 17.234 106.586 17.366L109.97 23H107.234L104.282 17.6H102.626V23H100.358V10.256ZM104.39 15.656C104.714 15.656 105.038 15.644 105.362 15.62C105.686 15.584 105.98 15.512 106.244 15.404C106.52 15.284 106.742 15.11 106.91 14.882C107.078 14.642 107.162 14.312 107.162 13.892C107.162 13.52 107.084 13.22 106.928 12.992C106.772 12.764 106.568 12.596 106.316 12.488C106.064 12.368 105.782 12.29 105.47 12.254C105.17 12.218 104.876 12.2 104.588 12.2H102.626V15.656H104.39ZM112.812 16.682C112.812 15.662 112.98 14.738 113.316 13.91C113.652 13.07 114.114 12.356 114.702 11.768C115.302 11.18 116.01 10.73 116.826 10.418C117.654 10.094 118.56 9.932 119.544 9.932C120.54 9.92 121.452 10.07 122.28 10.382C123.108 10.682 123.822 11.126 124.422 11.714C125.022 12.302 125.49 13.01 125.826 13.838C126.162 14.666 126.33 15.59 126.33 16.61C126.33 17.606 126.162 18.512 125.826 19.328C125.49 20.144 125.022 20.846 124.422 21.434C123.822 22.022 123.108 22.484 122.28 22.82C121.452 23.144 120.54 23.312 119.544 23.324C118.56 23.324 117.654 23.168 116.826 22.856C116.01 22.532 115.302 22.082 114.702 21.506C114.114 20.918 113.652 20.216 113.316 19.4C112.98 18.584 112.812 17.678 112.812 16.682ZM115.188 16.538C115.188 17.222 115.29 17.852 115.494 18.428C115.71 19.004 116.01 19.502 116.394 19.922C116.778 20.342 117.234 20.672 117.762 20.912C118.302 21.152 118.902 21.272 119.562 21.272C120.222 21.272 120.822 21.152 121.362 20.912C121.902 20.672 122.364 20.342 122.748 19.922C123.132 19.502 123.426 19.004 123.63 18.428C123.846 17.852 123.954 17.222 123.954 16.538C123.954 15.902 123.846 15.308 123.63 14.756C123.426 14.204 123.132 13.724 122.748 13.316C122.364 12.896 121.902 12.572 121.362 12.344C120.822 12.104 120.222 11.984 119.562 11.984C118.902 11.984 118.302 12.104 117.762 12.344C117.234 12.572 116.778 12.896 116.394 13.316C116.01 13.724 115.71 14.204 115.494 14.756C115.29 15.308 115.188 15.902 115.188 16.538ZM132.9 12.308H128.994V10.256H139.074V12.308H135.168V23H132.9V12.308ZM141.742 16.682C141.742 15.662 141.91 14.738 142.246 13.91C142.582 13.07 143.044 12.356 143.632 11.768C144.232 11.18 144.94 10.73 145.756 10.418C146.584 10.094 147.49 9.932 148.474 9.932C149.47 9.92 150.382 10.07 151.21 10.382C152.038 10.682 152.752 11.126 153.352 11.714C153.952 12.302 154.42 13.01 154.756 13.838C155.092 14.666 155.26 15.59 155.26 16.61C155.26 17.606 155.092 18.512 154.756 19.328C154.42 20.144 153.952 20.846 153.352 21.434C152.752 22.022 152.038 22.484 151.21 22.82C150.382 23.144 149.47 23.312 148.474 23.324C147.49 23.324 146.584 23.168 145.756 22.856C144.94 22.532 144.232 22.082 143.632 21.506C143.044 20.918 142.582 20.216 142.246 19.4C141.91 18.584 141.742 17.678 141.742 16.682ZM144.118 16.538C144.118 17.222 144.22 17.852 144.424 18.428C144.64 19.004 144.94 19.502 145.324 19.922C145.708 20.342 146.164 20.672 146.692 20.912C147.232 21.152 147.832 21.272 148.492 21.272C149.152 21.272 149.752 21.152 150.292 20.912C150.832 20.672 151.294 20.342 151.678 19.922C152.062 19.502 152.356 19.004 152.56 18.428C152.776 17.852 152.884 17.222 152.884 16.538C152.884 15.902 152.776 15.308 152.56 14.756C152.356 14.204 152.062 13.724 151.678 13.316C151.294 12.896 150.832 12.572 150.292 12.344C149.752 12.104 149.152 11.984 148.492 11.984C147.832 11.984 147.232 12.104 146.692 12.344C146.164 12.572 145.708 12.896 145.324 13.316C144.94 13.724 144.64 14.204 144.424 14.756C144.22 15.308 144.118 15.902 144.118 16.538ZM161.83 12.308H157.924V10.256H168.004V12.308H164.098V23H161.83V12.308ZM174.47 17.546L169.682 10.256H172.526L175.658 15.332L178.826 10.256H181.526L176.738 17.546V23H174.47V17.546ZM184.494 10.256H188.778C189.39 10.256 189.978 10.316 190.542 10.436C191.118 10.556 191.622 10.76 192.054 11.048C192.486 11.324 192.828 11.702 193.08 12.182C193.344 12.65 193.476 13.238 193.476 13.946C193.476 14.75 193.338 15.398 193.062 15.89C192.786 16.382 192.414 16.766 191.946 17.042C191.478 17.306 190.932 17.486 190.308 17.582C189.696 17.678 189.054 17.726 188.382 17.726H186.762V23H184.494V10.256ZM188.13 15.782C188.454 15.782 188.79 15.77 189.138 15.746C189.486 15.722 189.804 15.65 190.092 15.53C190.392 15.41 190.632 15.23 190.812 14.99C191.004 14.75 191.1 14.414 191.1 13.982C191.1 13.586 191.016 13.274 190.848 13.046C190.68 12.806 190.464 12.626 190.2 12.506C189.936 12.374 189.642 12.29 189.318 12.254C188.994 12.218 188.682 12.2 188.382 12.2H186.762V15.782H188.13ZM197.298 10.256H205.74V12.308H199.566V15.44H205.416V17.492H199.566V20.948H206.064V23H197.298V10.256Z" fill="white"/>
</svg>
