<svg width="67" height="53" viewBox="0 0 67 53" fill="none" xmlns="http://www.w3.org/2000/svg">
<path d="M60.2686 49.569L61.189 50.8992L61.9675 49.4813C64.5377 44.8001 66 39.4179 66 33.6953C66 15.644 51.4551 1 33.5 1C15.5449 1 1 15.644 1 33.6953C1 38.6149 2.08069 43.2834 4.01738 47.4713L4.81592 49.198L5.78543 47.5611L23.3307 17.9382L34.1255 36.1638L34.9205 37.5061L35.8082 36.2231L43.4213 25.2205L60.2686 49.569Z" fill="#C9BB98" stroke="#30380F" stroke-width="2"/>
<path d="M13.7824 32.1227L18.8321 31.8807L23.2805 28.4934L33.3798 32.8485L26.5267 21.3559L24.9637 18.6945L23.3327 16.0012L13.7824 32.1227Z" fill="#30380F"/>
<path d="M51.8951 35.7519L49.6108 34.3635L43.3589 30.9763L38.0688 33.0905L37.1069 32.6066L40.3531 28.0095L43.4072 23.4758L47.4466 29.3403L51.8951 35.7519Z" fill="#30380F"/>
<line x1="37.6998" y1="34.3355" x2="26.0918" y2="50.6476" stroke="#30380F" stroke-width="3" stroke-linecap="round" stroke-dasharray="5 10"/>
</svg>
